<?xml version="1.0" standalone="no"?>
<svg width="1080" height="1080" viewBox="0 0 285.74999 285.75" version="1.1" id="svg5" xml:space="preserve" xmlns="http://www.w3.org/2000/svg" xmlns:svg="http://www.w3.org/2000/svg"><defs id="defs2"><style>.primary-color{ fill: #029ee2 }</style></defs><g id="layer1"><path id="rect524-3-4" style="display:inline;fill:#2e2e2e;fill-opacity:1;stroke:#7c8a87;stroke-width:0;stroke-miterlimit:0;paint-order:fill markers stroke;stop-color:#000000" d="m 99.704763,85.480271 -38.405701,14.173632 -0.540771,80.424507 38.644473,6.63796 z"></path><path id="rect524-3" class="primary-color" style="display:inline;fill-opacity:0.9;stroke:#7c8a87;stroke-width:0;stroke-miterlimit:0;paint-order:fill markers stroke;stop-color:#000000" d="m 99.704763,85.480271 -38.405701,14.173632 -0.540771,80.424507 38.644473,6.63796 z"></path><path id="rect524-4" style="display:inline;fill:#ececec;fill-opacity:1;stroke:#7c8a87;stroke-width:0;stroke-miterlimit:0;paint-order:fill markers stroke;stop-color:#000000" d="m 99.704763,85.480271 131.920357,19.360369 0.52417,72.82834 -132.746526,9.04739 z"></path><path id="rect524" class="primary-color" style="display:inline;fill-opacity:0.701466;stroke:#7c8a87;stroke-width:0;stroke-miterlimit:0;paint-order:fill markers stroke;stop-color:#000000" d="m 99.704763,85.480271 131.920357,19.360369 0.52417,72.82834 -132.746526,9.04739 z"></path><path d="m 108.29225,154.83061 0.11099,26.13294 13.62493,-0.94326 -0.0162,-25.28615 z m 18.20225,-0.12799 -0.0135,25.0094 12.49581,-0.86509 0.0932,-24.23274 z m 16.69168,-0.11738 -0.11814,23.97845 11.50086,-0.7962 0.18536,-23.26359 z m 15.36103,-0.10801 -0.20645,23.02913 10.6195,-0.73519 0.26331,-22.36902 z m 14.18343,-0.0997 -0.28117,22.15212 9.83629,-0.68097 0.32938,-21.54065 z m 13.13559,-0.0924 -0.34454,21.33949 9.13729,-0.63258 0.38548,-20.77145 z m 12.20094,-0.0858 -0.39836,20.58434 8.50967,-0.58913 0.43316,-20.05529 z" style="fill:#ffffff;fill-opacity:0.3;stroke:#7c8a87;stroke-width:0;stroke-miterlimit:0;paint-order:fill markers stroke;stop-color:#000000" id="path3113"></path><path d="m 63.304295,105.87219 -0.007,18.78752 5.700725,-0.93985 0.0098,-19.46663 z m 7.747413,-2.1991 -0.01088,19.70999 6.284771,-1.03614 0.0143,-20.45876 z m 8.546522,-2.42594 -0.01558,20.72768 6.963853,-1.14809 0.01972,-21.557452 z m 9.476973,-2.690037 -0.02128,21.856237 7.758711,-1.27913 0.02631,-22.780849 z m -25.779265,29.864257 -0.007,18.76778 5.697309,-0.12629 0.0098,-19.44544 z m 7.742714,-1.09203 -0.01086,19.68826 6.280667,-0.13922 0.01428,-20.43535 z m 8.540875,-1.20461 -0.01556,20.70365 6.958892,-0.15426 0.0197,-21.53145 z m 9.470139,-1.33567 -0.02125,21.82952 7.752674,-0.17185 0.02628,-22.75181 z m -25.762081,26.17022 -0.0069,18.74714 5.693894,0.68593 0.0098,-19.42331 z m 7.738019,0.0133 -0.01085,19.6656 6.276566,0.75613 0.01427,-20.41097 z m 8.535231,0.0146 -0.01555,20.67863 6.953937,0.83773 0.01967,-21.50444 z m 9.463311,0.0162 -0.02122,21.80175 7.746643,0.93323 0.02625,-22.7217 z" style="fill:#ffffff;fill-opacity:0.25;stroke:#7c8a87;stroke-width:0;stroke-miterlimit:0;paint-order:fill markers stroke;stop-color:#000000" id="path3010"></path><path id="rect524-7" class="primary-color" style="fill-opacity:0.601417;stroke:#7c8a87;stroke-width:0;stroke-miterlimit:0;paint-order:fill markers stroke;stop-color:#000000" d="m 105.47474,92.982932 98.9764,12.587028 0.27951,40.03429 -99.13213,-2.58273 z"></path><path id="rect524-7-0" class="primary-color" style="display:inline;fill-opacity:1;stroke:#7c8a87;stroke-width:0;stroke-miterlimit:0;paint-order:fill markers stroke;stop-color:#000000" d="m 99.515199,145.68173 112.349971,1.99247 -0.0121,3.53837 -112.329019,-0.87873 z"></path><path id="rect524-7-0-4-9" style="display:inline;fill:#2e2e2e;fill-opacity:1;stroke:#7c8a87;stroke-width:0;stroke-miterlimit:0;paint-order:fill markers stroke;stop-color:#000000" d="m 208.44638,140.13914 15.5693,-0.9976 0.13655,6.38667 -15.72678,0.16994 z"></path><path id="rect524-6-3-9" class="primary-color" style="display:inline;fill-opacity:0.6;stroke:#7c8a87;stroke-width:0;stroke-miterlimit:0;paint-order:fill markers stroke;stop-color:#000000" d="m 230.95876,106.99607 -21.45671,-2.994 0.0331,36.07878 21.47255,0.63791 z"></path><path id="rect524-7-0-4-8-8" style="fill:#ececec;fill-opacity:1;stroke:#7c8a87;stroke-width:0;stroke-miterlimit:0;paint-order:fill markers stroke;stop-color:#000000" d="m 224.01568,139.14154 24.98596,1.04654 -0.007,5.93678 -24.84259,-0.59665 z"></path><path id="rect524-7-0-4" class="primary-color" style="fill-opacity:0.9;stroke:#7c8a87;stroke-width:0;stroke-miterlimit:0;paint-order:fill markers stroke;stop-color:#000000" d="m 208.44638,140.13914 15.5693,-0.9976 0.13655,6.38667 -15.72678,0.16994 z"></path><path id="rect524-7-0-4-8" class="primary-color" style="fill-opacity:0.446016;stroke:#7c8a87;stroke-width:0;stroke-miterlimit:0;paint-order:fill markers stroke;stop-color:#000000" d="m 224.01568,139.14154 24.98596,1.04654 -0.007,5.93678 -24.84259,-0.59665 z"></path><path id="rect524-7-0-4-8-3-3" style="fill:#2e2e2e;fill-opacity:1;stroke:#7c8a87;stroke-width:0;stroke-miterlimit:0;paint-order:fill markers stroke;stop-color:#000000" d="m 224.15223,145.52821 24.84303,0.59665 -16.00034,0.42902 -24.56947,-0.85573 z"></path><path id="rect524-7-0-4-8-3" class="primary-color" style="display:inline;fill-opacity:0.799839;stroke:#7c8a87;stroke-width:0;stroke-miterlimit:0;paint-order:fill markers stroke;stop-color:#000000" d="m 224.15223,145.52821 24.84303,0.59665 -16.00034,0.42902 -24.56947,-0.85573 z"></path><path id="rect2612" style="fill:#ffffff;fill-opacity:0.451444;stroke:#7c8a87;stroke-width:0;stroke-miterlimit:0;paint-order:fill markers stroke;stop-color:#000000" d="m 109.23538,97.748285 0,12.457005 10.07104,0.94192 -9.3e-4,-12.205866 z m 13.41655,1.58953 0.001,12.122415 9.54151,0.89239 -0.002,-11.88447 z m 12.71371,1.506255 0.002,11.80534 9.05396,0.8468 -0.003,-11.57955 z m 12.06599,1.42953 0.003,11.50441 8.60228,0.80455 -0.004,-11.28989 z m 11.46594,1.35843 0.004,11.21845 8.18301,0.76534 -0.005,-11.01438 z m 10.90958,1.29251 0.005,10.94636 7.79419,0.72897 -0.006,-10.75198 z m 10.39225,1.23123 0.006,10.68716 7.43293,0.69519 -0.006,-10.50179 z m 9.91182,1.1743 0.006,10.43995 7.09576,0.66365 -0.007,-10.26298 z m -80.87584,5.37098 0,12.45994 10.07215,0.64035 -9.3e-4,-12.20869 z m 13.41803,1.18789 0.001,12.12519 9.5425,0.60668 -0.002,-11.88715 z m 12.71503,1.12566 0.002,11.80798 9.05486,0.57567 -0.003,-11.5821 z m 12.06718,1.0683 0.003,11.50692 8.60308,0.54695 -0.004,-11.29231 z m 11.46701,1.01517 0.004,11.22084 8.18374,0.52029 -0.005,-11.01669 z m 10.91054,0.9659 0.005,10.94864 7.79484,0.49556 -0.006,-10.75417 z m 10.39311,0.9201 0.006,10.68934 7.43352,0.47259 -0.006,-10.50389 z m 9.9126,0.87756 0.006,10.44202 7.09629,0.45116 -0.007,-10.26499 z m -80.8835,7.80395 v 12.46217 l 10.07327,0.33849 -9.3e-4,-12.21082 z m 13.41951,0.78585 0.001,12.12729 9.5435,0.32068 -0.002,-11.88915 z m 12.71635,0.74467 0.002,11.80996 9.05576,0.30429 -0.003,-11.58398 z m 12.06837,0.70673 0.003,11.50878 8.60389,0.28912 -0.004,-11.29409 z m 11.46808,0.67157 0.004,11.2226 8.18446,0.27502 -0.005,-11.01837 z m 10.9115,0.63898 0.005,10.9503 7.79549,0.26195 -0.006,-10.75577 z m 10.39398,0.60868 0.006,10.69091 7.4341,0.2498 -0.006,-10.5054 z m 9.91338,0.58053 0.006,10.44351 7.09682,0.23847 -0.007,-10.26642 z"></path><path id="path2939" style="fill:#ffffff;fill-opacity:0.447892;stroke:#7c8a87;stroke-width:0;stroke-miterlimit:0;paint-order:fill markers stroke;stop-color:#000000" d="m 211.01005,107.86596 0.008,8.91997 5.51986,0.62052 -0.009,-8.75967 z m 7.3583,1.04109 0.009,8.70623 5.26082,0.5914 -0.0101,-8.55344 z m 7.01393,0.99237 0.0105,8.50248 5.01928,0.56424 -0.0114,-8.35669 z m -14.36302,8.67391 0.008,8.92493 5.52119,0.4279 -0.009,-8.76444 z m 7.36006,0.78451 0.009,8.71095 5.26202,0.40782 -0.0101,-8.558 z m 7.01552,0.74778 0.0105,8.50699 5.02036,0.38908 -0.0114,-8.36105 z m -14.36636,9.18694 0.008,8.92948 5.52253,0.23497 -0.009,-8.76883 z m 7.36183,0.52749 0.009,8.71528 5.26322,0.22395 -0.0101,-8.56217 z m 7.01711,0.5028 0.0105,8.51111 5.02145,0.21365 -0.0114,-8.36502 z"></path><path id="rect904-1" style="fill:#2e2e2e;fill-opacity:1;stroke:#7c8a87;stroke-width:0;stroke-miterlimit:0;paint-order:fill markers stroke;stop-color:#000000" d="m 216.70983,150.07619 12.47659,0.14786 -0.034,25.76231 -12.44261,0.57983 z"></path><path id="rect904" class="primary-color" style="fill-opacity:0.896538;stroke:#7c8a87;stroke-width:0;stroke-miterlimit:0;paint-order:fill markers stroke;stop-color:#000000" d="m 216.70983,150.07619 12.47659,0.14786 -0.034,25.76231 -12.44261,0.57983 z"></path><path id="path7747-3" style="display:inline;fill:#2e2e2e;fill-opacity:1;stroke:#7c8a87;stroke-width:0;stroke-miterlimit:0;paint-order:fill markers stroke;stop-color:#000000" d="m 124.98711,196.60242 c -33.723295,16.05789 -78.209382,-7.22748 -78.209382,-7.22748 0.132404,-0.46607 -0.977141,0.95748 0,0 1.027486,-1.0068 4.173726,-4.40904 5.595495,-5.46182 3.643623,-2.69799 8.656099,-4.97158 19.229704,-4.88758 14.176802,0.11262 43.681833,4.256 59.809893,3.54185 80.33202,-3.5571 100.78128,-8.85839 100.70849,-8.78569 0.10062,-0.20137 19.61478,-0.62894 -25.88382,18.42969 -4.98456,2.08796 -16.98482,5.32162 -23.10343,6.08046 -16.46611,2.04217 -25.30137,1.807 -38.22639,1.20493 -2.89883,-0.13503 -14.99669,-2.07613 -19.92056,-2.89436 -2.49485,-0.41459 1.03067,-0.49078 0,0 z"></path><rect class="primary-color" style="fill-opacity:1;stroke:#7c8a87;stroke-width:0;stroke-miterlimit:0;paint-order:fill markers stroke;stop-color:#000000" id="rect1063" width="13.118741" height="1.1702998" x="108.59258" y="152.58012" ry="0.54975587" rx="0.81519324"></rect><rect class="primary-color" style="fill-opacity:1;stroke:#7c8a87;stroke-width:0;stroke-miterlimit:0;paint-order:fill markers stroke;stop-color:#000000" id="rect1063-2" width="11.372863" height="1.1702999" x="127.09563" y="152.45615" ry="0.54975587" rx="0.81519324"></rect><rect class="primary-color" style="fill-opacity:1;stroke:#7c8a87;stroke-width:0;stroke-miterlimit:0;paint-order:fill markers stroke;stop-color:#000000" id="rect1063-2-8" width="10.406147" height="1.1702999" x="143.76646" y="152.34232" ry="0.54975587" rx="0.81519324"></rect><rect class="primary-color" style="fill-opacity:1;stroke:#7c8a87;stroke-width:0;stroke-miterlimit:0;paint-order:fill markers stroke;stop-color:#000000" id="rect1063-2-8-1" width="9.6372252" height="1.1702999" x="159.06625" y="152.23743" ry="0.54975587" rx="0.81519324"></rect><rect class="primary-color" style="fill-opacity:1;stroke:#7c8a87;stroke-width:0;stroke-miterlimit:0;paint-order:fill markers stroke;stop-color:#000000" id="rect1063-2-8-1-7" width="9.3211536" height="1.1702999" x="173.01178" y="152.14049" ry="0.54975587" rx="0.81519324"></rect><rect class="primary-color" style="fill-opacity:1;stroke:#7c8a87;stroke-width:0;stroke-miterlimit:0;paint-order:fill markers stroke;stop-color:#000000" id="rect1063-2-8-1-7-6" width="8.5529642" height="1.1702999" x="186.17834" y="152.05057" ry="0.54975587" rx="0.81519324"></rect><rect class="primary-color" style="fill-opacity:1;stroke:#7c8a87;stroke-width:0;stroke-miterlimit:0;paint-order:fill markers stroke;stop-color:#000000" id="rect1063-2-8-1-7-6-1" width="8.0575352" height="1.1703" x="198.31012" y="151.96703" ry="0.54975587" rx="0.81519324"></rect><rect style="fill:#2e2e2e;fill-opacity:1;stroke:#7c8a87;stroke-width:0;stroke-miterlimit:0;paint-order:fill markers stroke;stop-color:#000000" id="rect1063-2-8-1-7-6-1-4-8" width="12.880532" height="1.1559788" x="219.15729" y="145.09769" ry="0.54975516" rx="0.8151924" transform="matrix(0.99988987,0.01484076,-0.01731126,0.99985015,0,0)"></rect><rect class="primary-color" style="display:inline;fill-opacity:0.897543;stroke:#7c8a87;stroke-width:0;stroke-miterlimit:0;paint-order:fill markers stroke;stop-color:#000000" id="rect1063-2-8-1-7-6-1-4" width="12.880527" height="1.1559844" x="219.15729" y="145.09769" ry="0.54975516" rx="0.8151924" transform="matrix(0.99988987,0.01484076,-0.01731126,0.99985015,0,0)"></rect><path id="rect1320" class="primary-color" style="fill-opacity:1;stroke:#7c8a87;stroke-width:0;stroke-miterlimit:0;paint-order:fill markers stroke;stop-color:#000000" d="m 150.72815,81.147803 41.38319,7.915019 c 1.83331,0.35064 1.79805,0.275529 1.80105,1.833961 l 0.013,6.948832 c 0.004,1.558411 0.13256,1.481821 -1.7142,1.210791 l -40.90844,-6.003694 c -1.84676,-0.27103 -2.11401,-0.44792 -2.11185,-2.006352 l 0.0113,-8.25783 c 0.002,-1.380873 0.61019,-1.815787 1.52548,-1.640726 z"></path><path id="rect1393" style="fill:#ececec;fill-opacity:1;stroke:#7c8a87;stroke-width:0;stroke-miterlimit:0;paint-order:fill markers stroke;stop-color:#000000" d="m 171.29797,86.907807 -0.0245,3.058712 -3.05553,-0.484148 0,2.425584 3.03639,0.448489 -0.023,2.870714 2.38859,0.321983 0.0408,-2.837267 2.86212,0.422748 0.0511,-2.328252 -2.87928,-0.456221 0.0434,-3.02215 z"></path><path id="path7747" class="primary-color" style="display:inline;fill-opacity:0.897409;stroke:#7c8a87;stroke-width:0;stroke-miterlimit:0;paint-order:fill markers stroke;stop-color:#000000" d="m 124.98711,196.60242 c -33.723295,16.05789 -78.209382,-7.22748 -78.209382,-7.22748 0.132404,-0.46607 -0.977141,0.95748 0,0 1.027486,-1.0068 4.173726,-4.40904 5.595495,-5.46182 3.643623,-2.69799 8.656099,-4.97158 19.229704,-4.88758 14.176802,0.11262 43.681833,4.256 59.809893,3.54185 80.33203,-3.5571 100.78129,-8.85839 100.7085,-8.78569 0.10061,-0.20137 19.61477,-0.62894 -25.88383,18.42969 -4.98456,2.08796 -16.98483,5.32162 -23.10344,6.08046 -16.46611,2.04217 -25.30137,1.807 -38.22639,1.20493 -2.89883,-0.13503 -14.99669,-2.07613 -19.92055,-2.89436 -2.49485,-0.41459 1.03067,-0.49078 0,0 z"></path><path id="path7747-5-4" style="display:inline;fill:#ececec;fill-opacity:1;stroke:#7c8a87;stroke-width:0;stroke-miterlimit:0;paint-order:fill markers stroke;stop-color:#000000" d="m 123.75517,207.86211 c -85.50482,1.72944 -78.778607,-14.79382 -79.337863,-14.74187 -0.891452,-4.98455 12.502886,-14.22465 17.405722,-13.29459 0.622206,0.11802 -17.585124,16.3273 -1.085101,11.47339 15.158961,-4.45941 44.007142,1.22343 59.786352,4.36441 69.02644,13.74035 84.30403,-11.38493 108.85422,-17.80563 0.71808,-0.1878 3.41588,-1.29947 4.26083,-2.35417 0.71316,-0.89019 -0.36716,-1.61726 -0.0628,-1.73721 0.47709,-0.18805 3.14853,0.53575 2.77682,1.65442 0,0 -0.0208,0.38129 -0.32033,0.86649 -1.8444,2.9873 -9.39162,11.85274 -44.34731,21.94398 -27.59371,7.96594 -50.55761,9.2794 -67.93049,9.63078 z"></path><path id="path7747-5" class="primary-color" style="display:inline;fill-opacity:0.300801;stroke:#7c8a87;stroke-width:0;stroke-miterlimit:0;paint-order:fill markers stroke;stop-color:#000000" d="m 123.75517,207.86211 c -85.504819,1.72944 -78.778605,-14.79382 -79.337861,-14.74187 -0.891452,-4.98455 12.502886,-14.22465 17.405722,-13.29459 0.622206,0.11802 -17.585125,16.3273 -1.085101,11.47339 15.158961,-4.45941 44.00715,1.22343 59.78635,4.36441 69.02645,13.74035 84.30403,-11.38493 108.85423,-17.80563 0.71808,-0.1878 3.41587,-1.29947 4.26083,-2.35417 0.71316,-0.89019 -0.36716,-1.61726 -0.0628,-1.73721 0.47709,-0.18805 3.14853,0.53575 2.77682,1.65442 0,0 -0.0208,0.38129 -0.32033,0.86649 -1.8444,2.9873 -9.39162,11.85274 -44.34731,21.94398 -27.59371,7.96594 -50.55762,9.2794 -67.9305,9.63078 z"></path><path d="m 59.283024,121.68203 c 0.01481,-4.01387 0.04819,-13.05968 0.0858,-23.250106 1.658334,-0.612227 3.332573,-1.230325 5.017089,-1.852219 8.904499,-3.28738 21.156421,-7.810568 34.987962,-12.916924 14.970144,2.169691 31.483734,4.563081 47.948654,6.949417 0.11641,0.01687 0.23455,0.03219 0.35126,0.01759 0.11671,-0.0146 0.23055,-0.06026 0.31936,-0.137363 0.0888,-0.07711 0.15001,-0.183401 0.18086,-0.296902 0.0308,-0.113501 0.0323,-0.232628 0.0319,-0.350245 -0.0108,-3.568013 -0.0215,-7.126296 -0.0314,-10.381264 7.79455,1.416742 14.31629,2.602136 17.97868,3.267813 a 0.77257128,0.77257128 90 0 0 0.27632,-1.520234 c -3.80458,-0.691523 -10.69485,-1.943901 -18.89222,-3.433858 -0.11848,-0.02154 -0.23887,-0.04152 -0.35875,-0.03019 -0.11988,0.01133 -0.23775,0.05524 -0.33009,0.132539 -0.0923,0.0773 -0.15628,0.185612 -0.18852,0.301635 -0.0322,0.116023 -0.0337,0.23805 -0.0334,0.358467 0.01,3.233299 0.0206,6.806286 0.0315,10.414418 -16.24203,-2.354032 -32.50364,-4.710901 -47.256825,-6.849147 -0.06371,-0.0092 -0.12829,-0.01649 -0.192313,-0.0098 -0.06402,0.0067 -0.125677,0.02728 -0.186069,0.04958 -13.906927,5.134187 -26.228102,9.682942 -35.172094,12.984903 -1.855003,0.684833 -3.697542,1.365066 -5.520105,2.037923 -0.07547,0.02786 -0.151141,0.05666 -0.220006,0.09825 -0.06887,0.04159 -0.130423,0.09602 -0.176536,0.161944 -0.04611,0.06592 -0.07615,0.14241 -0.0916,0.22136 -0.01545,0.07895 -0.01656,0.15991 -0.01686,0.240357 -0.03841,10.408377 -0.07271,19.702167 -0.08778,23.786307 a 0.77257128,0.77257128 90 0 0 1.545132,0.006 z" id="path-1" class="primary-color" style="fill-opacity:1;fill-rule:nonzero;stroke:none;stroke-width:0;stroke-miterlimit:0;paint-order:fill markers stroke;stop-color:#000000"></path><path d="m 233.47818,132.40685 c -0.0812,-1.87189 -0.1045,-6.61454 -0.16415,-11.00093 -6.7e-4,-0.10032 -0.0245,-3.9448 -0.0252,-4.04813 -0.0247,-4.30848 -0.0449,-8.93196 -0.0631,-14.41464 -1.8e-4,-0.054 -0.001,-0.10841 -0.0131,-0.16101 -0.0121,-0.0526 -0.0356,-0.10293 -0.0709,-0.14371 -0.0353,-0.0408 -0.0818,-0.0712 -0.13216,-0.0907 -0.0504,-0.0194 -0.10413,-0.028 -0.15752,-0.0358 -9.21943,-1.3552 -28.34592,-4.166678 -37.56535,-5.521882 a 0.43730608,0.43730608 90 0 0 -0.1272,0.865314 c 30.58263,4.495468 7.05101,1.036457 37.1929,5.467138 0.0179,5.31899 0.0377,9.82992 0.0618,14.04029 -6.6e-4,-0.11433 0.0259,4.16635 0.0252,4.05201 0.0594,4.37151 0.083,9.14146 0.16492,11.02994 a 0.43730608,0.43730608 90 0 0 0.8738,-0.0379 z" id="path-1-4" class="primary-color" style="fill-opacity:1;fill-rule:nonzero;stroke:none;stroke-width:0;stroke-miterlimit:0;paint-order:fill markers stroke;stop-color:#000000"></path></g></svg>